<svg id="Слой_1" data-name="Слой 1" xmlns="http://www.w3.org/2000/svg" xmlns:xlink="http://www.w3.org/1999/xlink" viewBox="0 0 568.21 137.56"><defs><style>.cls-1,.cls-3,.cls-4{stroke:#2c1f28;}.cls-1,.cls-2,.cls-3,.cls-4{stroke-miterlimit:10;}.cls-1,.cls-2{stroke-width:2px;}.cls-1{fill:url(#Безымянный_градиент_97);}.cls-2,.cls-5{fill:#fff;}.cls-2{stroke:#201600;}.cls-3{fill:#5daf61;}.cls-4{fill:#d34c59;}.cls-6{fill:#f1eeda;}.cls-7{fill:#201600;}</style><linearGradient id="Безымянный_градиент_97" x1="325.32" y1="437.84" x2="325.32" y2="303.73" gradientUnits="userSpaceOnUse"><stop offset="0.3" stop-color="#513533"/><stop offset="0.3" stop-color="#684d46"/><stop offset="0.3" stop-color="#876c5e"/><stop offset="0.3" stop-color="#a18873"/><stop offset="0.31" stop-color="#b69e84"/><stop offset="0.31" stop-color="#c6af91"/><stop offset="0.31" stop-color="#d2ba9a"/><stop offset="0.31" stop-color="#d8c1a0"/><stop offset="0.32" stop-color="#dac3a1"/><stop offset="0.67" stop-color="#dac3a1"/><stop offset="0.69" stop-color="#dac3a1"/><stop offset="0.69" stop-color="#d8c1a0"/><stop offset="0.7" stop-color="#d2ba9a"/><stop offset="0.7" stop-color="#c6af91"/><stop offset="0.7" stop-color="#b69e84"/><stop offset="0.7" stop-color="#a18873"/><stop offset="0.7" stop-color="#876c5e"/><stop offset="0.7" stop-color="#684d46"/><stop offset="0.7" stop-color="#513533"/></linearGradient></defs><title>Полный логотип</title><path class="cls-1" d="M277.76,303.73c64.09,0,104.44,17,104.44,64.48s-33.49,69.63-104.44,69.63C267.35,437.84,263.44,303.73,277.76,303.73Z" transform="translate(-21.53 -301.28)"/><path class="cls-2" d="M276,302.28h71.28c28.35,0,31.85,30.79,28.35,34.28-2.52,2.53-6.54,3.39-10.86,2.41a17.1,17.1,0,0,1-9.25-5.88l-6.83-8.26a6.68,6.68,0,0,0-3.3-2.23,10.22,10.22,0,0,0-8.33,1.27l-6.46,4.05a26.39,26.39,0,0,1-27.87.15l-7.31-4.48a7.87,7.87,0,0,0-9.37.76l-11,9.11c-2.82,2.33-6.61-.14-6.61-4.3V311.54C268.43,306.42,271.81,302.28,276,302.28Z" transform="translate(-21.53 -301.28)"/><path class="cls-3" d="M333.6,396.61c-12.18-21.17-17.74,9-.84,12.14C334.41,407.76,335.92,404.52,333.6,396.61Z" transform="translate(-21.53 -301.28)"/><path class="cls-3" d="M338.15,390.9C317.45,377.79,326.44,407,343,402,344,400.35,343.87,396.81,338.15,390.9Z" transform="translate(-21.53 -301.28)"/><path class="cls-3" d="M324.8,400.6c.16-21.6-17.38-.8-6,9C320.48,409.53,323.05,407.69,324.8,400.6Z" transform="translate(-21.53 -301.28)"/><path class="cls-4" d="M321.31,342.13c7.44-.36,12.56,9.17,17.41,13.19,3.1,3.05,8.79,9.9,9.08,15.9.57,11.75-1,13.89-4.17,17.36s-8.28,6.14-12.81,8.28a27.3,27.3,0,0,1-7.8,2.49l-11.85.57s-10,.16-10.6-11.63c-1.44-12.05,1.49-16.38,4.51-24.22C314,342.48,313.87,342.49,321.31,342.13Z" transform="translate(-21.53 -301.28)"/><path class="cls-5" d="M323.7,349.59c.35,1.85.13,3.37-1.68,3.8s-2.6-1.07-2.95-2.92.91-4.15,1.4-4.34S323.35,347.73,323.7,349.59Z" transform="translate(-21.53 -301.28)"/><path class="cls-5" d="M332.94,355.17c.66,1.77.7,3.31-1,4s-2.74-.61-3.4-2.38.19-4.24.64-4.5S332.28,353.4,332.94,355.17Z" transform="translate(-21.53 -301.28)"/><path class="cls-5" d="M326,358.86c.58,1.8.55,3.33-1.19,4s-2.71-.74-3.29-2.54.39-4.22.85-4.47S325.43,357.06,326,358.86Z" transform="translate(-21.53 -301.28)"/><path class="cls-5" d="M333.16,365.91c.35,1.85.13,3.37-1.68,3.79s-2.6-1.06-3-2.92.91-4.14,1.39-4.33S332.81,364.05,333.16,365.91Z" transform="translate(-21.53 -301.28)"/><path class="cls-5" d="M328.41,373.24c.36,1.85.14,3.37-1.67,3.8s-2.6-1.07-2.95-2.92.91-4.15,1.39-4.34S328.06,371.38,328.41,373.24Z" transform="translate(-21.53 -301.28)"/><path class="cls-5" d="M335.51,379.35c.36,1.86.14,3.38-1.67,3.8s-2.6-1.06-2.95-2.92.91-4.14,1.39-4.33S335.16,377.5,335.51,379.35Z" transform="translate(-21.53 -301.28)"/><path class="cls-5" d="M342,385.27c.35,1.85.13,3.37-1.68,3.79s-2.6-1.06-2.95-2.92.91-4.14,1.39-4.33S341.62,383.41,342,385.27Z" transform="translate(-21.53 -301.28)"/><path class="cls-6" d="M330.83,386.15c.35,1.85.13,3.37-1.68,3.8s-2.6-1.07-2.95-2.93.91-4.14,1.4-4.33S330.48,384.29,330.83,386.15Z" transform="translate(-21.53 -301.28)"/><path class="cls-5" d="M341.89,373.55c.54,1.81.47,3.34-1.29,3.95s-2.69-.8-3.23-2.61.49-4.22.95-4.45S341.35,371.74,341.89,373.55Z" transform="translate(-21.53 -301.28)"/><path class="cls-5" d="M340.7,363.75c.76,1.73.89,3.26-.78,4.08s-2.77-.46-3.53-2.18,0-4.25.39-4.54S339.94,362,340.7,363.75Z" transform="translate(-21.53 -301.28)"/><path class="cls-5" d="M317.31,357.69c-.18,1.88-.82,3.27-2.68,3.17s-2.19-1.76-2-3.64,2-3.72,2.56-3.76S317.5,355.81,317.31,357.69Z" transform="translate(-21.53 -301.28)"/><path class="cls-5" d="M313,367c0,1.89-.48,3.34-2.34,3.43s-2.36-1.52-2.37-3.41,1.66-3.91,2.17-4S313,365.1,313,367Z" transform="translate(-21.53 -301.28)"/><path class="cls-5" d="M308.25,377.73c-.24,1.87-.92,3.25-2.78,3.09s-2.13-1.83-1.89-3.7,2.16-3.65,2.68-3.68S308.5,375.86,308.25,377.73Z" transform="translate(-21.53 -301.28)"/><path class="cls-5" d="M313.07,384.85c0,1.89-.51,3.34-2.37,3.41s-2.35-1.54-2.34-3.42,1.68-3.9,2.19-4S313.07,383,313.07,384.85Z" transform="translate(-21.53 -301.28)"/><path class="cls-5" d="M309,391.44c0,1.89-.51,3.33-2.37,3.41s-2.35-1.54-2.34-3.43,1.68-3.89,2.19-4S309,389.55,309,391.44Z" transform="translate(-21.53 -301.28)"/><path class="cls-5" d="M321.37,368.57c0,1.88-.49,3.34-2.35,3.42s-2.36-1.52-2.37-3.41,1.66-3.9,2.17-4S321.36,366.68,321.37,368.57Z" transform="translate(-21.53 -301.28)"/><path class="cls-5" d="M317.31,376.13c0,1.88-.49,3.34-2.35,3.42s-2.36-1.52-2.36-3.41,1.65-3.91,2.16-4S317.3,374.24,317.31,376.13Z" transform="translate(-21.53 -301.28)"/><path class="cls-5" d="M323.78,381.11c0,1.89-.48,3.34-2.34,3.43s-2.36-1.53-2.37-3.41,1.65-3.91,2.16-4S323.77,379.22,323.78,381.11Z" transform="translate(-21.53 -301.28)"/><path class="cls-5" d="M319.68,390.34c0,1.89-.48,3.34-2.34,3.43s-2.36-1.53-2.37-3.41,1.65-3.91,2.16-4S319.67,388.45,319.68,390.34Z" transform="translate(-21.53 -301.28)"/><path class="cls-7" d="M29,331.84H66.71a8,8,0,0,1,5.5,1.73,6.28,6.28,0,0,1,1.94,4.95,6.56,6.56,0,0,1-2,5,7.58,7.58,0,0,1-5.46,1.91H55.46v37.13a7.9,7.9,0,0,1-2,5.55,7.3,7.3,0,0,1-5.63,2.15,7.28,7.28,0,0,1-5.62-2.15,7.85,7.85,0,0,1-2-5.55V345.38H29a7.58,7.58,0,0,1-5.46-1.91,6.57,6.57,0,0,1-2-5,6.29,6.29,0,0,1,1.95-4.95A8,8,0,0,1,29,331.84Z" transform="translate(-21.53 -301.28)"/><path class="cls-7" d="M82.15,385.14q-5.55-5.92-5.54-15.65t5.54-15.65q5.53-5.93,15.18-5.93t15.19,6q5.53,6,5.54,15.61t-5.54,15.65q-5.53,5.92-15.19,5.92T82.15,385.14Zm9.26-15.65a15.09,15.09,0,0,0,1.44,6.89,4.73,4.73,0,0,0,4.48,2.84q5.92,0,5.93-9.73t-5.93-9.73Q91.42,359.76,91.41,369.49Z" transform="translate(-21.53 -301.28)"/><path class="cls-7" d="M149.87,347.91a13.93,13.93,0,0,1,11.38,5.25q4.26,5.25,4.27,15.06,0,10.39-4.78,16.62T147,391.06a21.49,21.49,0,0,1-7.36-1v10.75a7.35,7.35,0,0,1-1.86,5.16,8,8,0,0,1-10.62,0,7.29,7.29,0,0,1-1.9-5.16V355.87a6.77,6.77,0,0,1,7.19-7.11q4.83,0,6.52,3.89A13.62,13.62,0,0,1,149.87,347.91Zm-3.72,11.85q-6.35,0-6.52,11.08v7.87a13,13,0,0,0,5.08.93q6,0,6-11.25Q150.71,359.75,146.15,359.76Z" transform="translate(-21.53 -301.28)"/><path class="cls-7" d="M175.25,348.76H202q6.77,0,6.77,6.34a6.33,6.33,0,0,1-1.69,4.62,6.82,6.82,0,0,1-5.08,1.73h-5.75v21.49a7,7,0,0,1-2.07,5.24,8.59,8.59,0,0,1-11.09,0,7,7,0,0,1-2.07-5.24V361.45h-5.75a6.82,6.82,0,0,1-5.08-1.73,6.33,6.33,0,0,1-1.69-4.62Q168.48,348.77,175.25,348.76Z" transform="translate(-21.53 -301.28)"/><path class="cls-7" d="M217.17,385.14q-5.55-5.92-5.54-15.65t5.54-15.65q5.54-5.93,15.18-5.93t15.19,6q5.53,6,5.54,15.61t-5.54,15.65q-5.55,5.92-15.19,5.92T217.17,385.14Zm9.26-15.65a15.09,15.09,0,0,0,1.44,6.89,4.73,4.73,0,0,0,4.48,2.84q5.93,0,5.92-9.73t-5.92-9.73Q226.43,359.76,226.43,369.49Z" transform="translate(-21.53 -301.28)"/><path class="cls-7" d="M398.37,396.84v-56a10.21,10.21,0,0,1,2.59-7.22c1.73-1.88,4.17-2.81,7.34-2.81h35.07a10.32,10.32,0,0,1,7.12,2.31,9.34,9.34,0,0,1,0,12.91,10,10,0,0,1-7.12,2.43H418.22v11h19.53a10.31,10.31,0,0,1,7.11,2.31,9.34,9.34,0,0,1,0,12.91,10,10,0,0,1-7.11,2.42H418.22v12.14h26.15a10.31,10.31,0,0,1,7.11,2.31,9.34,9.34,0,0,1,0,12.91,10,10,0,0,1-7.11,2.42H408.3c-3.17,0-5.61-.93-7.34-2.81A10.21,10.21,0,0,1,398.37,396.84Z" transform="translate(-21.53 -301.28)"/><path class="cls-7" d="M508.34,399.26l-4.19-11.14H479.77l-3.42,9.82a15.17,15.17,0,0,1-5,7.5q-3.31,2.54-8.39.66a6.32,6.32,0,0,1-4.41-5.24,13.38,13.38,0,0,1,1.22-8l23.16-56q2.86-7.17,9.71-7.17,6.61,0,9.37,6.4l23.83,56.48a10.73,10.73,0,0,1,.71,7.66,8.12,8.12,0,0,1-5,5.79,9.29,9.29,0,0,1-8.05-.11A11.23,11.23,0,0,1,508.34,399.26ZM491.79,355l-7.06,18.31H499Z" transform="translate(-21.53 -301.28)"/><path class="cls-7" d="M580.14,406.87H544.85a9,9,0,0,1-7-2.86,10.28,10.28,0,0,1-2.59-7.17v-56a10.21,10.21,0,0,1,2.59-7.22c1.73-1.88,4.18-2.81,7.34-2.81s5.61.93,7.33,2.81a10.22,10.22,0,0,1,2.6,7.22v48.43h25a9.93,9.93,0,0,1,7.06,2.37,8.26,8.26,0,0,1,2.54,6.34,8.53,8.53,0,0,1-2.54,6.56A9.93,9.93,0,0,1,580.14,406.87Z" transform="translate(-21.53 -301.28)"/></svg>